<svg width="21" height="12" viewBox="0 0 21 12" fill="none" xmlns="http://www.w3.org/2000/svg">
<path d="M4.4304 8V3.63636H5.22088V5.48366H7.2429V3.63636H8.03551V8H7.2429V6.14631H5.22088V8H4.4304ZM9.55575 3.63636L10.5167 5.23438H10.5508L11.516 3.63636H12.4173L11.0728 5.81818L12.4386 8H11.5224L10.5508 6.41264H10.5167L9.5451 8H8.63317L10.0117 5.81818L8.65021 3.63636H9.55575ZM14.5932 8.05966C14.3844 8.05824 14.1806 8.02202 13.9817 7.95099C13.7828 7.87855 13.6039 7.76136 13.4448 7.59943C13.2871 7.4375 13.1614 7.22088 13.0676 6.94957C12.9739 6.67827 12.927 6.34233 12.927 5.94176C12.927 5.44034 12.9966 5.01278 13.1358 4.65909C13.2765 4.30398 13.4746 4.03267 13.7303 3.84517C13.986 3.65767 14.2885 3.56392 14.638 3.56392C14.9135 3.56392 15.1571 3.61861 15.3688 3.72798C15.5804 3.83594 15.7516 3.98437 15.8823 4.1733C16.013 4.3608 16.0939 4.57386 16.1252 4.8125H15.3475C15.3077 4.6392 15.226 4.50213 15.1025 4.40128C14.9803 4.29901 14.8255 4.24787 14.638 4.24787C14.3354 4.24787 14.1025 4.37997 13.9391 4.64418C13.7772 4.90696 13.6955 5.27131 13.6941 5.73722H13.7239C13.829 5.54972 13.9782 5.4027 14.1713 5.29616C14.3659 5.18821 14.5804 5.13423 14.8148 5.13423C15.0691 5.13423 15.2985 5.19531 15.503 5.31747C15.7076 5.43963 15.8695 5.60795 15.9888 5.82244C16.1081 6.03551 16.1671 6.27983 16.1657 6.5554C16.1671 6.84233 16.1017 7.10014 15.9696 7.32884C15.839 7.55611 15.655 7.73509 15.4178 7.86577C15.182 7.99645 14.9071 8.06108 14.5932 8.05966ZM14.589 7.42045C14.7438 7.42045 14.8823 7.38281 15.0044 7.30753C15.1266 7.23224 15.2232 7.13068 15.2942 7.00284C15.3652 6.875 15.4 6.73153 15.3986 6.57244C15.4 6.41619 15.3659 6.27486 15.2963 6.14844C15.2267 6.02202 15.1316 5.92187 15.0108 5.84801C14.8915 5.77415 14.7544 5.73722 14.5996 5.73722C14.4462 5.73722 14.3077 5.77557 14.1841 5.85227C14.0605 5.92898 13.9625 6.03125 13.8901 6.15909C13.8176 6.28551 13.7807 6.42543 13.7793 6.57884C13.7793 6.73082 13.8141 6.87074 13.8837 6.99858C13.9547 7.12642 14.0513 7.22869 14.1735 7.3054C14.2956 7.3821 14.4341 7.42045 14.589 7.42045Z" fill="#318CB7"/>
<rect x="0.666667" y="0.666667" width="19.3333" height="10.6667" rx="1.33333" stroke="#318CB7" stroke-width="1.33333"/>
</svg>
