<?xml version="1.0" standalone="no"?>
<!DOCTYPE svg PUBLIC "-//W3C//DTD SVG 20010904//EN"
 "http://www.w3.org/TR/2001/REC-SVG-20010904/DTD/svg10.dtd">
<svg version="1.0" xmlns="http://www.w3.org/2000/svg"
 width="700.000000pt" height="700.000000pt" viewBox="0 0 700.000000 700.000000"
 preserveAspectRatio="xMidYMid meet">
<metadata>
Created by potrace 1.11, written by Peter Selinger 2001-2013
</metadata>
<g transform="translate(0.000000,700.000000) scale(0.100000,-0.100000)"
fill="#000000" stroke="none">
<path d="M3346 6227 c-66 -57 -46 -141 55 -228 l58 -51 -16 -40 c-19 -48 -13
-110 18 -171 30 -60 124 -184 183 -242 28 -27 60 -63 70 -78 29 -46 112 -69
154 -43 17 10 15 3 -9 -43 -35 -67 -13 -163 47 -210 22 -17 25 -25 18 -53 -10
-41 -10 -37 33 -192 l36 -129 -21 -66 c-11 -36 -23 -97 -27 -136 -8 -95 -16
-138 -27 -152 -5 -6 -31 -12 -58 -11 -62 0 -127 -29 -168 -76 -75 -86 -69
-132 34 -238 52 -54 116 -87 184 -95 43 -5 49 -8 54 -35 3 -17 30 -55 63 -89
l57 -60 2 -69 c1 -56 -2 -75 -20 -102 -33 -49 -68 -138 -74 -183 -5 -46 -12
-52 -55 -51 -29 1 -32 5 -38 39 -9 55 -28 84 -67 103 -55 26 -103 22 -171 -14
-34 -18 -63 -32 -66 -32 -3 0 -5 11 -5 24 0 34 -40 88 -83 111 -20 11 -40 27
-42 37 -8 22 -46 46 -81 51 -77 10 -231 -116 -250 -204 -11 -53 -6 -119 15
-171 36 -94 193 -181 336 -187 17 -1 16 -4 -9 -20 -16 -11 -39 -17 -53 -15
-26 5 -215 70 -298 102 -102 40 -160 13 -189 -86 -74 -251 -98 -307 -133 -320
-45 -16 -106 -76 -132 -128 -36 -73 -68 -111 -143 -171 -84 -67 -115 -97 -122
-121 -11 -35 -78 -78 -130 -85 -54 -8 -111 -37 -166 -86 -19 -17 -38 -31 -41
-31 -4 0 -16 -22 -27 -49 -31 -71 -10 -131 60 -167 15 -8 35 -29 44 -47 26
-49 103 -144 142 -174 26 -20 50 -28 85 -29 45 -2 53 1 79 29 16 18 37 41 47
52 11 11 45 28 77 38 64 20 149 78 188 129 13 18 39 65 56 103 17 39 41 91 52
117 21 48 32 55 108 72 23 4 23 4 7 -8 -9 -7 -28 -21 -41 -31 -35 -26 -50 -80
-37 -134 8 -37 6 -51 -8 -80 -24 -47 -39 -116 -50 -221 -7 -76 -13 -92 -50
-149 -22 -35 -41 -76 -41 -91 0 -19 -9 -33 -27 -45 -40 -26 -66 -55 -111 -121
-23 -32 -61 -81 -85 -107 -40 -42 -48 -47 -73 -41 -16 4 -45 17 -64 30 -19 12
-51 28 -71 35 -32 11 -45 28 -115 148 -113 193 -125 227 -130 341 -6 171 -19
199 -94 205 -50 4 -79 -23 -167 -155 -31 -47 -68 -96 -81 -110 -13 -14 -37
-52 -54 -84 -24 -47 -30 -72 -29 -117 0 -48 -3 -61 -20 -72 -23 -17 -42 -73
-33 -102 4 -11 22 -46 41 -78 51 -85 82 -98 226 -93 l115 3 9 -48 c6 -26 7
-52 3 -56 -16 -19 -50 -128 -50 -160 0 -75 45 -103 163 -103 61 0 80 4 108 23
30 20 34 28 36 72 2 70 -13 120 -48 159 -19 22 -31 50 -35 77 -6 42 -6 43 12
28 11 -9 44 -28 74 -42 30 -15 72 -36 92 -48 51 -28 169 -37 219 -16 38 15
116 100 202 219 45 60 81 88 126 95 24 3 61 46 67 77 3 17 0 44 -5 59 -9 24
-8 34 9 57 36 51 53 103 56 175 4 84 19 151 47 208 12 25 21 63 21 95 l1 53
115 56 c106 52 119 56 175 54 130 -7 172 5 199 57 42 82 13 152 -96 225 l-38
25 30 12 c17 7 30 15 30 19 0 4 30 37 66 75 110 114 154 197 154 288 0 54 -12
85 -43 109 -19 16 -19 16 14 28 19 7 60 16 92 21 32 5 70 16 83 25 29 19 47
60 40 90 -5 19 -1 22 37 24 48 3 60 5 137 15 30 5 61 12 69 16 9 5 27 0 45
-11 36 -22 63 -24 119 -7 49 15 97 63 147 148 21 36 59 87 84 114 25 27 64 80
86 118 23 38 60 90 84 117 27 30 57 83 86 152 47 111 53 163 26 204 -33 51
-25 57 86 75 37 6 78 14 90 19 38 15 76 63 97 122 24 72 55 133 98 193 57 80
68 113 78 229 14 167 -121 208 -298 89 -61 -41 -75 -46 -125 -46 -32 -1 -79 6
-107 13 -27 8 -67 18 -87 23 -51 12 -91 48 -129 116 -18 31 -41 67 -51 78 -11
12 -22 41 -24 65 -12 113 -51 197 -104 224 -72 37 -138 3 -149 -75 l-6 -40
-35 19 c-27 15 -129 68 -148 77 -2 1 6 17 18 36 33 56 40 118 20 175 -15 42
-15 52 -3 82 29 70 20 179 -21 260 -27 51 -96 121 -120 121 -16 0 -26 12 -41
52 -26 69 -69 99 -121 88 -20 -5 -41 -13 -47 -19 -19 -19 -56 -12 -68 11 -18
34 -140 157 -171 174 -41 21 -91 18 -122 -9z m380 -372 c6 -2 15 -21 18 -42 6
-32 48 -166 72 -227 12 -30 -78 61 -140 143 -55 72 -74 111 -62 129 5 8 82 6
112 -3z m630 -987 c16 -24 39 -60 49 -81 44 -84 151 -157 261 -177 27 -4 72
-15 100 -23 91 -26 220 -4 291 49 17 13 35 24 38 24 12 0 -8 -43 -40 -89 -46
-65 -80 -128 -99 -188 -16 -49 -20 -53 -54 -58 -20 -3 -64 -12 -97 -20 l-60
-14 -68 70 c-38 39 -102 122 -143 185 -41 63 -101 156 -135 206 -61 92 -94
158 -80 158 4 0 21 -19 37 -42z m-42 -308 c49 -74 104 -159 123 -187 19 -29
66 -85 104 -125 37 -40 68 -76 69 -80 0 -5 -19 -8 -42 -9 -24 0 -63 -2 -88 -5
-25 -2 -162 -5 -305 -6 -267 -3 -283 -1 -322 38 -17 16 7 24 56 20 57 -6 98
12 136 58 42 52 62 113 70 220 8 95 8 96 34 169 14 40 19 74 16 105 l-5 45 33
-54 c18 -30 73 -115 121 -189z m325 -642 c-19 -40 -41 -79 -51 -86 -16 -12
-35 -39 -116 -167 -18 -27 -51 -69 -75 -93 l-43 -42 -1 37 c-4 107 -43 210
-133 356 l-29 47 82 0 c113 1 292 11 347 19 25 4 47 6 49 5 2 -2 -12 -36 -30
-76z m-1274 -429 c4 -5 18 -14 31 -19 20 -8 24 -16 24 -50 0 -23 7 -55 16 -71
15 -30 15 -31 -7 -24 -79 25 -111 50 -122 94 -11 45 38 104 58 70z m365 -164
c0 -21 -5 -25 -30 -25 -16 0 -30 3 -30 8 0 5 41 35 58 41 1 1 2 -10 2 -24z
m-565 -320 c81 -30 95 -40 65 -50 -53 -17 -74 -106 -46 -197 18 -63 53 -105
142 -174 63 -50 71 -59 52 -62 -60 -7 -190 -35 -248 -53 -36 -12 -78 -23 -95
-26 -234 -38 -276 -67 -346 -238 -59 -145 -93 -183 -182 -209 -29 -8 -74 -29
-101 -46 -55 -35 -52 -37 -103 50 -14 25 -35 54 -45 66 -17 20 -18 21 -1 36
10 9 36 18 58 21 54 8 89 22 133 54 60 44 93 76 108 108 8 17 39 48 69 70 74
55 154 144 190 213 24 45 40 62 77 82 26 14 58 36 71 50 26 27 72 139 107 258
12 39 23 72 24 72 0 0 32 -11 71 -25z m354 -106 c17 -6 31 -14 31 -19 0 -23
-104 -149 -124 -150 -14 0 -76 67 -75 82 0 11 113 95 130 97 3 1 20 -4 38 -10z
m-1599 -1261 c-2 -6 60 -151 80 -184 11 -19 29 -49 40 -67 l20 -34 -126 -2
-125 -2 22 22 c21 21 23 61 5 138 -6 27 13 69 52 111 22 24 38 33 32 18z"/>
</g>
</svg>
